{"title":"Jaws [1975] 720p BRRip H264 AC3 - CODY","uid":7558191,"size":1976277263,"categoryP":"video","categoryS":"hd___movies","magnet":"?xt=urn:btih:fde127632f133437d6c6355f689fb766e03d0661&amp;dn=Jaws+%5B1975%5D+720p+BRRip+H264+AC3+-+CODY&amp;tr=udp%3A%2F%2Ftracker.openbittorrent.com%3A80&amp;tr=udp%3A%2F%2Fopen.demonii.com%3A1337&amp;tr=udp%3A%2F%2Ftracker.coppersurfer.tk%3A6969&amp;tr=udp%3A%2F%2Fexodus.desync.com%3A6969","seeders":0,"leechers":0,"uploader":"CODYBOSS1969","files":5,"time":1345674648,"description":"General\nComplete name                            : Jaws [1975] 720p BRRip H264 AC3 - CODY.mp4\nFormat                                   : MPEG-4\nFormat profile                           : Base Media\nCodec ID                                 : isom\nFile size                                : 1.84 GiB\nDuration                                 : 2h 3mn\nOverall bit rate mode                    : Variable\nOverall bit rate                         : 2 126 Kbps\nEncoded date                             : UTC 2012-08-18 09:28:58\n\nVideo\nID                                       : 1\nFormat                                   : AVC\nFormat/Info                              : Advanced Video Codec\nFormat profile                           : &lt;a class=&quot;__cf_email__&quot; href=&quot;/cdn-cgi/l/email-protection&quot; data-cfemail=&quot;b7ffded0dff7fb839986&quot;&gt;[email&amp;#160;protected]&lt;/a&gt;&lt;script data-cfhash='f9e31' type=&quot;text/javascript&quot;&gt;\n/* &lt;![CDATA[ */!function(){try{var t=&quot;currentScript&quot;in document?document.currentScript:function(){for(var t=document.getElementsByTagName(&quot;script&quot;),e=t.length;e--;)if(t[e].getAttribute(&quot;data-cfhash&quot;))return t[e]}();if(t&amp;&amp;t.previousSibling){var e,r,n,i,c=t.previousSibling,a=c.getAttribute(&quot;data-cfemail&quot;);if(a){for(e=&quot;&quot;,r=parseInt(a.substr(0,2),16),n=2;a.length-n;n+=2)i=parseInt(a.substr(n,2),16)^r,e+=String.fromCharCode(i);e=document.createTextNode(e),c.parentNode.replaceChild(e,c)}t.parentNode.removeChild(t);}}catch(u){}}()/* ]]&gt; */&lt;/script&gt;\nFormat settings, CABAC                   : Yes\nFormat settings, ReFrames                : 5 frames\nCodec ID                                 : avc1\nCodec ID/Info                            : Advanced Video Coding\nDuration                                 : 2h 3mn\nBit rate mode                            : Variable\nBit rate                                 : 1 675 Kbps\nMaximum bit rate                         : 20.0 Mbps\nWidth                                    : 1 280 pixels\nHeight                                   : 544 pixels\nDisplay aspect ratio                     : 2.35:1\nFrame rate mode                          : Constant\nFrame rate                               : 23.976 fps\nColor space                              : YUV\nChroma subsampling                       : 4:2:0\nBit depth                                : 8 bits\nScan type                                : Progressive\nBits/(Pixel*Frame)                       : 0.100\nStream size                              : 1.45 GiB (79%)\nWriting library                          : x264 core 125 r2200 999b753\nEncoding settings                        : rc=2pass\nColor primaries                          : Generic film\n\nAudio\nID                                       : 2\nFormat                                   : AC-3\nFormat/Info                              : Audio Coding 3\nMode extension                           : CM (complete main)\nCodec ID                                 : ac-3\nDuration                                 : 2h 3mn\nBit rate mode                            : Constant\nBit rate                                 : 448 Kbps\nChannel(s)                               : 6 channels\nChannel positions                        : Front: L C R, Side: L R, LFE\nSampling rate                            : 48.0 KHz\nBit depth                                : 16 bits\nCompression mode                         : Lossy\nStream size                              : 397 MiB (21%)\n\n\nIMDB link:                                &lt;a href=&quot; http://www.imdb.com/title/tt0073195/&quot; rel=&quot;nofollow&quot; target=&quot;_NEW&quot;&gt; http://www.imdb.com/title/tt0073195/&lt;/a&gt;\n\n\nSubtitle included                        : Romanian\n\n\nPlease seed at least 1,5:1. This way this torrent has a chance to survive!\n\n\nThanks. Enjoy! \t\t\t\t                \t\t\n","torrent":{"xt":"urn:btih:fde127632f133437d6c6355f689fb766e03d0661","amp;dn":"Jaws+%5B1975%5D+720p+BRRip+H264+AC3+-+CODY","amp;tr":["udp%3A%2F%2Ftracker.openbittorrent.com%3A80","udp%3A%2F%2Fopen.demonii.com%3A1337","udp%3A%2F%2Ftracker.coppersurfer.tk%3A6969","udp%3A%2F%2Fexodus.desync.com%3A6969"],"infoHash":"fde127632f133437d6c6355f689fb766e03d0661","infoHashBuffer":{"type":"Buffer","data":[253,225,39,99,47,19,52,55,214,198,53,95,104,159,183,102,224,61,6,97]},"announce":[],"urlList":[]}}